<svg
    width="364"
    height="201"
    viewBox="0 0 364 201"
    fill="none"
    xmlns="http://www.w3.org/2000/svg"
    >
    <path
        d="M5.88928 72.3303C33.6599 66.4798 101.397 64.9086 150.178 105.427C211.155 156.076 229.59 162.093 264.333 166.607C299.076 171.12 337.718 183.657 362.889 212.24"
        stroke="url(#paint0_linear_25:218)"
    />
    <path
        d="M-22.1107 72.3303C5.65989 66.4798 73.3965 64.9086 122.178 105.427C183.155 156.076 201.59 162.093 236.333 166.607C271.076 171.12 309.718 183.657 334.889 212.24"
        stroke="url(#paint1_linear_25:218)"
    />
    <path
        d="M-53.1107 72.3303C-25.3401 66.4798 42.3965 64.9086 91.1783 105.427C152.155 156.076 170.59 162.093 205.333 166.607C240.076 171.12 278.718 183.657 303.889 212.24"
        stroke="url(#paint2_linear_25:218)"
    />
    <path
        d="M-98.1618 65.0889C-68.1416 60.0601 4.73364 60.4882 56.0734 102.431C120.248 154.86 139.905 161.419 177.137 166.956C214.37 172.493 255.575 186.165 281.856 215.481"
        stroke="url(#paint3_linear_25:218)"
    />
    <circle
        opacity="0.8"
        cx="214.505"
        cy="60.5054"
        r="49.7205"
        transform="rotate(-13.421 214.505 60.5054)"
        stroke="url(#paint4_linear_25:218)"
    />
    <circle cx="220" cy="63" r="43" fill="url(#paint5_radial_25:218)" />
    <defs>
        <linearGradient
            id="paint0_linear_25:218"
            x1="184.389"
            y1="69.2405"
            x2="184.389"
            y2="212.24"
            gradientUnits="userSpaceOnUse"
            >
            <stop :stop-color="$primaryColor" stop-opacity="0" />
            <stop offset="1" :stop-color="$primaryColor" />
        </linearGradient>
        <linearGradient
            id="paint1_linear_25:218"
            x1="156.389"
            y1="69.2405"
            x2="156.389"
            y2="212.24"
            gradientUnits="userSpaceOnUse"
            >
            <stop :stop-color="$primaryColor" stop-opacity="0" />
            <stop offset="1" :stop-color="$primaryColor" />
        </linearGradient>
        <linearGradient
            id="paint2_linear_25:218"
            x1="125.389"
            y1="69.2405"
            x2="125.389"
            y2="212.24"
            gradientUnits="userSpaceOnUse"
            >
            <stop :stop-color="$primaryColor" stop-opacity="0" />
            <stop offset="1" :stop-color="$primaryColor" />
        </linearGradient>
        <linearGradient
            id="paint3_linear_25:218"
            x1="93.8507"
            y1="67.2674"
            x2="89.9278"
            y2="210.214"
            gradientUnits="userSpaceOnUse"
            >
            <stop :stop-color="$primaryColor" stop-opacity="0" />
            <stop offset="1" :stop-color="$primaryColor" />
        </linearGradient>
        <linearGradient
            id="paint4_linear_25:218"
            x1="214.505"
            y1="10.2849"
            x2="212.684"
            y2="99.5816"
            gradientUnits="userSpaceOnUse"
            >
            <stop :stop-color="$primaryColor" />
            <stop offset="1" :stop-color="$primaryColor" stop-opacity="0" />
        </linearGradient>
            <radialGradient
            id="paint5_radial_25:218"
            cx="0"
            cy="0"
            r="1"
            gradientUnits="userSpaceOnUse"
            gradientTransform="translate(220 63) rotate(90) scale(43)"
            >
            <stop offset="0.145833" stop-color="white" stop-opacity="0" />
            <stop offset="1" stop-color="white" stop-opacity="0.08" />
        </radialGradient>
    </defs>
</svg>